<svg width="464" height="464" viewBox="0 0 464 464" fill="none" xmlns="http://www.w3.org/2000/svg">
<g clip-path="url(#clip0_1138_855)">
<path d="M432.768 328.472L279.824 281.232V271.64H183.824V281.248L30.872 328.472L39.824 463.64V463V463.64H423.824V462.512V463.64L432.768 328.472Z" fill="#F15249"/>
<path d="M432.768 328.472L279.824 281.232V271.64H183.824V281.248L30.872 328.472L102.824 463.64H40.52H423.824L432.768 328.472Z" fill="#C93131"/>
<path d="M347.328 247.64H116.32L132.816 127.64H330.816L347.328 247.64Z" fill="#C68D1A"/>
<path d="M336.488 127.544C336.488 162.888 285.224 191.544 231.816 191.544C178.44 191.544 127.16 162.888 127.16 127.544C127.16 92.1999 178.44 63.5439 231.816 63.5439C285.224 63.5439 336.488 92.1999 336.488 127.544Z" fill="#AD7410"/>
<path d="M279.824 167.64H183.824V287.64H279.824V167.64Z" fill="#F9BDA0"/>
<path d="M279.824 274.216V175.64H184.8L233.032 328.776L279.824 274.216Z" fill="#EAA78C"/>
<path d="M271.824 90.152L144.848 122.896L208.6 55.64H271.824V90.152Z" fill="#C68D1A"/>
<path d="M279.824 281.232V271.64H183.824V281.248L143.792 293.72C149.336 321.752 186.624 343.456 231.584 343.456C276.544 343.456 314.184 321.752 319.728 293.704L279.824 281.232Z" fill="#EAA78C"/>
<path d="M196.84 147.784C208.155 147.784 217.328 138.611 217.328 127.296C217.328 115.981 208.155 106.808 196.84 106.808C185.525 106.808 176.352 115.981 176.352 127.296C176.352 138.611 185.525 147.784 196.84 147.784Z" fill="#BADADD"/>
<path d="M196.856 151.784C183.352 151.784 172.36 140.8 172.36 127.296C172.36 113.792 183.352 102.8 196.856 102.8C210.36 102.8 221.336 113.792 221.336 127.296C221.328 140.8 210.352 151.784 196.856 151.784ZM196.856 110.8C187.752 110.8 180.36 118.2 180.36 127.296C180.36 136.384 187.76 143.784 196.856 143.784C205.944 143.784 213.336 136.384 213.336 127.296C213.328 118.192 205.944 110.8 196.856 110.8Z" fill="#13475E"/>
<path d="M175.824 127.64H151.824C149.616 127.64 147.824 125.848 147.824 123.64C147.824 121.432 149.616 119.64 151.824 119.64H175.824C178.032 119.64 179.824 121.432 179.824 123.64C179.824 125.848 178.032 127.64 175.824 127.64Z" fill="#13475E"/>
<path d="M246.32 127.296C246.32 115.968 255.488 106.8 266.808 106.8C278.128 106.8 287.304 115.968 287.304 127.296C287.304 138.592 278.128 147.784 266.808 147.784C255.488 147.784 246.32 138.592 246.32 127.296Z" fill="#7DA7AA"/>
<path d="M266.8 151.784C253.296 151.784 242.312 140.8 242.312 127.296C242.312 113.792 253.296 102.8 266.8 102.8C280.304 102.8 291.296 113.792 291.296 127.296C291.296 140.8 280.312 151.784 266.8 151.784ZM266.8 110.8C257.712 110.8 250.312 118.2 250.312 127.296C250.312 136.384 257.712 143.784 266.8 143.784C275.896 143.784 283.296 136.384 283.296 127.296C283.296 118.192 275.896 110.8 266.8 110.8Z" fill="#13475E"/>
<path d="M311.824 135.64H287.824C285.616 135.64 283.824 133.848 283.824 131.64C283.824 129.432 285.616 127.64 287.824 127.64H311.824C314.032 127.64 315.824 129.432 315.824 131.64C315.824 133.848 314.032 135.64 311.824 135.64Z" fill="#13475E"/>
<path d="M245.224 138.064C243.016 138.064 241.224 136.272 241.224 134.064C241.224 128.888 237.016 124.672 231.832 124.672C226.64 124.672 222.408 128.88 222.408 134.064C222.408 136.272 220.616 138.064 218.408 138.064C216.2 138.064 214.408 136.272 214.408 134.064C214.408 124.48 222.224 116.672 231.832 116.672C241.416 116.672 249.224 124.48 249.224 134.064C249.224 136.272 247.432 138.064 245.224 138.064Z" fill="#13475E"/>
<path d="M371.752 247.064L231.824 314.528L91.88 247.064L114.368 84.1999L231.824 20.0959L349.272 84.1999L371.752 247.064Z" fill="#FFA2E5"/>
<path d="M371.752 247.064L231.824 314.528L91.88 247.064L114.368 84.2L231.824 108.592L349.272 84.2L371.752 247.064Z" fill="#FF7EDB"/>
<path d="M231.824 20.0959L349.272 84.1999L371.752 247.064L231.824 314.528" fill="#FF3EC9"/>
<path d="M192.336 114.28C192.336 120.48 186.688 125.496 179.744 125.496C172.816 125.496 167.16 120.48 167.16 114.28C167.16 108.08 172.816 103.048 179.744 103.048C186.688 103.048 192.336 108.08 192.336 114.28Z" fill="#5E6664"/>
<path d="M188.624 106.344C193.568 110.72 193.528 117.848 188.624 122.216C183.744 126.608 175.752 126.608 170.84 122.216" fill="#2F423F"/>
<path d="M283.904 125.496C290.858 125.496 296.496 120.474 296.496 114.28C296.496 108.086 290.858 103.064 283.904 103.064C276.95 103.064 271.312 108.086 271.312 114.28C271.312 120.474 276.95 125.496 283.904 125.496Z" fill="#5E6664"/>
<path d="M292.784 106.344C297.736 110.72 297.68 117.848 292.784 122.216C287.896 126.608 279.896 126.608 274.992 122.216" fill="#2F423F"/>
<path d="M199.048 149.312L234.816 294.984L274.656 183.112L242.32 143.672L199.048 149.312Z" fill="#FF3EC9"/>
<path d="M231.72 183.264L264.616 149.312L250.488 137.184L231.864 108.496L231.824 109.608L231.776 108.496L213.152 137.184L199.048 149.312L229.008 180.344" fill="#FFEE1A"/>
<path d="M231.72 183.264L264.616 149.312L250.488 137.184L231.864 108.496L231.824 109.608L231.776 108.496" fill="#EACE00"/>
<path d="M231.824 104.592L269.328 30.496L237.68 0.72L231.824 0.184V0V0.096V0V0.184L225.936 0.72L194.552 30.496L231.824 104.592V105.328V104.968V105.328V104.592Z" fill="#F15249"/>
<path d="M231.824 103.64V105.328V104.968V105.328V104.592L269.328 30.496L237.68 0.72L231.824 0.184V0.096V0V7.64" fill="#C93131"/>
<path d="M254.864 418.216L247.192 410.528L239.504 418.216L231.832 410.528L224.144 418.216L216.456 410.528L208.784 418.216L202.272 411.704C201.696 415.296 201.384 418.984 201.384 422.688C201.384 447.312 215.008 457.2 231.84 457.2C248.656 457.2 262.28 447.312 262.28 422.688C262.28 418.984 261.968 415.296 261.392 411.704L254.864 418.216Z" fill="#FF7EDB"/>
<path d="M216.456 394.984L224.144 387.312L231.832 394.984L239.504 387.312L247.192 394.984L253.288 388.888C247.784 379.792 240.192 373.76 231.832 373.76C223.44 373.76 215.864 379.792 210.36 388.872L216.456 394.984Z" fill="#FF7EDB"/>
<path d="M231.832 457.2C248.648 457.2 262.272 447.312 262.272 422.688C262.272 418.984 261.96 415.296 261.384 411.704L254.872 418.216L247.2 410.528L239.512 418.216L231.84 410.528L224.152 418.216L216.464 410.528" fill="#FF3EC9"/>
<path d="M224.144 387.312L231.832 394.984L239.504 387.312L247.192 394.984L253.288 388.888C247.784 379.792 240.192 373.76 231.832 373.76" fill="#FF3EC9"/>
</g>
<defs>
<clipPath id="clip0_1138_855">
<rect width="463.64" height="463.64" fill="white"/>
</clipPath>
</defs>
</svg>
